<svg xmlns="http://www.w3.org/2000/svg" viewBox="0 0 960 520" font-family="-apple-system, system-ui, sans-serif" font-size="12"><rect width="100%" height="100%" fill="white"/><text x="70" y="30" font-size="16" font-weight="600">Eval (compiled expression, per call) — ns/op, log scale, lower is better</text><line x1="70.0" y1="430.0" x2="790.0" y2="430.0" stroke="#e5e7eb" stroke-width="1"/><text x="62.0" y="430.0" text-anchor="end" dominant-baseline="middle" fill="#6b7280">1 ns</text><line x1="70.0" y1="368.3" x2="790.0" y2="368.3" stroke="#e5e7eb" stroke-width="1"/><text x="62.0" y="368.3" text-anchor="end" dominant-baseline="middle" fill="#6b7280">10 ns</text><line x1="70.0" y1="306.7" x2="790.0" y2="306.7" stroke="#e5e7eb" stroke-width="1"/><text x="62.0" y="306.7" text-anchor="end" dominant-baseline="middle" fill="#6b7280">100 ns</text><line x1="70.0" y1="245.0" x2="790.0" y2="245.0" stroke="#e5e7eb" stroke-width="1"/><text x="62.0" y="245.0" text-anchor="end" dominant-baseline="middle" fill="#6b7280">1k ns</text><line x1="70.0" y1="183.3" x2="790.0" y2="183.3" stroke="#e5e7eb" stroke-width="1"/><text x="62.0" y="183.3" text-anchor="end" dominant-baseline="middle" fill="#6b7280">10k ns</text><line x1="70.0" y1="121.7" x2="790.0" y2="121.7" stroke="#e5e7eb" stroke-width="1"/><text x="62.0" y="121.7" text-anchor="end" dominant-baseline="middle" fill="#6b7280">100k ns</text><line x1="70.0" y1="60.0" x2="790.0" y2="60.0" stroke="#e5e7eb" stroke-width="1"/><text x="62.0" y="60.0" text-anchor="end" dominant-baseline="middle" fill="#6b7280">1M ns</text><line x1="70.0" y1="430.0" x2="790.0" y2="430.0" stroke="#9ca3af" stroke-width="1"/><rect x="88.0" y="311.6" width="34.0" height="118.4" fill="#2563eb"><title>deepnoodle/expr predicate: 83.0 ns/op</title></rect><rect x="124.0" y="324.9" width="34.0" height="105.1" fill="#16a34a"><title>expr-lang/expr predicate: 50.7 ns/op</title></rect><rect x="160.0" y="306.4" width="34.0" height="123.6" fill="#ea580c"><title>cel-go predicate: 101 ns/op</title></rect><text x="142.0" y="448.0" text-anchor="end" transform="rotate(-30 142.0 448.0)">predicate</text><rect x="232.0" y="325.5" width="34.0" height="104.5" fill="#2563eb"><title>deepnoodle/expr len: 49.5 ns/op</title></rect><rect x="268.0" y="350.3" width="34.0" height="79.7" fill="#16a34a"><title>expr-lang/expr len: 19.6 ns/op</title></rect><rect x="304.0" y="311.0" width="34.0" height="119.0" fill="#ea580c"><title>cel-go len: 85.1 ns/op</title></rect><text x="286.0" y="448.0" text-anchor="end" transform="rotate(-30 286.0 448.0)">len</text><rect x="376.0" y="136.6" width="34.0" height="293.4" fill="#2563eb"><title>deepnoodle/expr filter: 57.2k ns/op</title></rect><rect x="412.0" y="142.6" width="34.0" height="287.4" fill="#16a34a"><title>expr-lang/expr filter: 45.8k ns/op</title></rect><rect x="448.0" y="116.6" width="34.0" height="313.4" fill="#ea580c"><title>cel-go filter: 120.9k ns/op</title></rect><text x="430.0" y="448.0" text-anchor="end" transform="rotate(-30 430.0 448.0)">filter</text><rect x="520.0" y="136.7" width="34.0" height="293.3" fill="#2563eb"><title>deepnoodle/expr filterLen: 57.0k ns/op</title></rect><rect x="556.0" y="144.1" width="34.0" height="285.9" fill="#16a34a"><title>expr-lang/expr filterLen: 43.2k ns/op</title></rect><rect x="592.0" y="116.4" width="34.0" height="313.6" fill="#ea580c"><title>cel-go filterLen: 121.7k ns/op</title></rect><text x="574.0" y="448.0" text-anchor="end" transform="rotate(-30 574.0 448.0)">filterLen</text><rect x="664.0" y="330.9" width="34.0" height="99.1" fill="#2563eb"><title>deepnoodle/expr arrayIndex: 40.5 ns/op</title></rect><rect x="700.0" y="326.9" width="34.0" height="103.1" fill="#16a34a"><title>expr-lang/expr arrayIndex: 47.1 ns/op</title></rect><rect x="736.0" y="334.0" width="34.0" height="96.0" fill="#ea580c"><title>cel-go arrayIndex: 36.1 ns/op</title></rect><text x="718.0" y="448.0" text-anchor="end" transform="rotate(-30 718.0 448.0)">arrayIndex</text><rect x="810" y="70" width="14" height="14" fill="#2563eb"/><text x="830" y="81">deepnoodle/expr</text><rect x="810" y="92" width="14" height="14" fill="#16a34a"/><text x="830" y="103">expr-lang/expr</text><rect x="810" y="114" width="14" height="14" fill="#ea580c"/><text x="830" y="125">cel-go</text></svg>